<?xml version="1.0" encoding="UTF-8" standalone="no"?>
<svg width="266px" height="167px" viewBox="0 0 266 167" version="1.1" xmlns="http://www.w3.org/2000/svg" xmlns:xlink="http://www.w3.org/1999/xlink">
    <!-- Generator: Sketch 3.7 (28169) - http://www.bohemiancoding.com/sketch -->
    <title>Combined Shape</title>
    <desc>Created with Sketch.</desc>
    <defs></defs>
    <g id="Main-User-Flows" stroke="none" stroke-width="1" fill="none" fill-rule="evenodd">
        <g id="Discover" transform="translate(-58.000000, -471.000000)" stroke="#E3E3E3" stroke-width="28" fill="#E3E3E3">
            <path d="M191.5,554 C210.553824,554 226,538.553824 226,519.5 C226,500.446176 210.553824,485 191.5,485 C172.446176,485 157,500.446176 157,519.5 C157,538.553824 172.446176,554 191.5,554 Z M117.5,624 C142.628956,624 163,603.628956 163,578.5 C163,553.371044 142.628956,533 117.5,533 C92.3710439,533 72,553.371044 72,578.5 C72,603.628956 92.3710439,624 117.5,624 Z M264.5,624 C289.628956,624 310,603.628956 310,578.5 C310,553.371044 289.628956,533 264.5,533 C239.371044,533 219,553.371044 219,578.5 C219,603.628956 239.371044,624 264.5,624 Z" id="Combined-Shape"></path>
        </g>
    </g>
</svg>